<?xml version="1.0" standalone="no"?>
<!DOCTYPE svg PUBLIC "-//W3C//DTD SVG 20010904//EN"
 "http://www.w3.org/TR/2001/REC-SVG-20010904/DTD/svg10.dtd">
<svg version="1.0" xmlns="http://www.w3.org/2000/svg"
 width="1129.000000pt" height="584.000000pt" viewBox="0 0 1129.000000 584.000000"
 preserveAspectRatio="xMidYMid meet">

<g transform="translate(0.000000,584.000000) scale(0.100000,-0.100000)"
fill="#000000" stroke="none">
<path d="M0 2920 l0 -2920 585 0 585 0 0 1165 0 1165 293 0 292 0 293 -293
292 -292 0 -873 0 -872 585 0 585 0 0 1073 0 1072 -385 385 -385 385 385 385
385 385 0 493 0 492 775 0 775 0 0 -2335 0 -2335 585 0 585 0 0 2335 0 2335
775 0 775 0 0 -2335 0 -2335 585 0 585 0 0 1165 0 1165 293 0 292 0 293 -293
292 -292 0 -873 0 -872 585 0 585 0 0 1067 0 1068 -390 390 -390 390 390 390
390 390 0 400 0 400 -674 673 -675 672 -3800 0 -3801 0 0 -873 0 -872 -298
-298 -297 -297 -288 0 -287 0 0 1170 0 1170 -585 0 -585 0 0 -2920z m9818
1457 l292 -292 -293 -293 -292 -292 -285 2 -285 3 -3 583 -2 582 287 0 288 0
293 -293z"/>
</g>
</svg>
